<svg xmlns="http://www.w3.org/2000/svg" width="111.981" height="47.135" viewBox="0 0 111.981 47.135">
  <g id="Group_1" data-name="Group 1" transform="translate(-401.431 -345.591)">
    <path id="Path_81" data-name="Path 81" d="M428.667,345.751q5.16-.022,10.321-.038c.093,0,.186.1.28.156a24.493,24.493,0,0,1-2.777,3.709c-.836,1.133-1.79,2.174-2.643,3.3a8.179,8.179,0,0,0-.731.9,2.165,2.165,0,0,1-.221.274,21.864,21.864,0,0,0-1.553,1.913q-4.256,5.285-8.526,10.556-5.159,6.343-10.3,12.7c-3.264,4.035-6.55,8.053-9.792,12.106a6.714,6.714,0,0,1-.966,1.113.245.245,0,0,1-.236.013,16.343,16.343,0,0,1-.063-2.776c0-3.479.025-6.957.04-10.436,1.262-1.883,2.787-3.56,4.2-5.32q6.464-8.031,12.947-16.047c2.984-3.7,6-7.386,8.971-11.1A3.252,3.252,0,0,1,428.667,345.751Z" transform="translate(0 -0.094)" fill="#007cb5"/>
    <path id="Path_82" data-name="Path 82" d="M434.6,353.345c1.777-2.387,3.676-4.676,5.584-6.958.022,1.417.066,2.834.063,4.252-.005,2.954-.035,5.908-.055,8.862a10.082,10.082,0,0,1-1.709,2.389c-4.108,5.025-8.147,10.106-12.236,15.146-4.106,5.062-8.256,10.09-12.308,15.2a1.958,1.958,0,0,1-1.7.818c-2.925-.043-5.85-.014-8.776-.023-.276,0-.577.111-.833-.1a39.479,39.479,0,0,1,3.245-4.167q13-16.106,26.038-32.189a2.133,2.133,0,0,1,.255-.23,8.946,8.946,0,0,0,1.57-1.946l.119-.154A2.616,2.616,0,0,0,434.6,353.345Z" transform="translate(-0.919 -0.611)" fill="#6ac000"/>
    <path id="Path_83" data-name="Path 83" d="M732.058,406.6c.084-2.639-.213-5.871.108-9.081a10.079,10.079,0,0,1,9.628-8.891c3.878-.147,7.221.936,9.669,4.1a7.572,7.572,0,0,1,1.625,4.157,2.287,2.287,0,0,1-2.054,2.647,2.35,2.35,0,0,1-2.773-1.925,4.255,4.255,0,0,0-3.673-3.765c-2.387-.515-4.635-.312-6.353,1.725a4.937,4.937,0,0,0-1.131,3.3c0,5.517-.015,11.034-.007,16.551a5.129,5.129,0,0,0,5.259,5.31,5.331,5.331,0,0,0,5.759-5.121c.056-1.653,0-3.31.022-4.965.007-.5-.166-.655-.655-.644-1.188.027-2.378.019-3.567,0a2.431,2.431,0,0,1-2.609-2.521,2.383,2.383,0,0,1,2.572-2.459q3.306-.028,6.612,0a2.5,2.5,0,0,1,2.65,2.355,82.5,82.5,0,0,1-.081,9.314,10.125,10.125,0,0,1-9.272,9c-5.213.449-9.518-2.15-11.168-6.735a10.355,10.355,0,0,1-.559-3.507C732.052,412.7,732.058,409.941,732.058,406.6Z" transform="translate(-253.75 -33.025)" fill="#10100e"/>
    <path id="Path_84" data-name="Path 84" d="M628.889,414.529c1.235-5.268,2.452-10.463,3.672-15.658q.945-4.024,1.9-8.047c.4-1.694,1.581-2.514,3.078-2.158a2.53,2.53,0,0,1,1.852,3.309q-2.282,9.52-4.61,19.028-1.491,6.131-2.995,12.259a3.05,3.05,0,0,1-5.981.023q-2.625-10.78-5.229-21.564c-.785-3.242-1.576-6.484-2.349-9.729a2.561,2.561,0,0,1,2.618-3.387,2.421,2.421,0,0,1,2.307,2.112q1.23,5.3,2.458,10.594,1.444,6.187,2.9,12.37C628.577,413.953,628.548,414.27,628.889,414.529Z" transform="translate(-166.333 -33.001)" fill="#10100e"/>
    <path id="Path_85" data-name="Path 85" d="M402.011,436.239c3.277.01,6.554.006,9.831.04.679.007.98-.47,1.311-.877q6-7.36,11.966-14.748c3.013-3.734,5.99-7.5,9.006-11.23,1.8-2.223,3.633-4.411,5.452-6.614q.025,3.165.051,6.33c.015,1.619-.023,3.242.071,4.857a3.44,3.44,0,0,1-1.066,2.961,9.437,9.437,0,0,0-.734.846,3.1,3.1,0,0,0-.743.877l.009-.011c-.456.22-.623.676-.867,1.069l.012-.015a2.236,2.236,0,0,0-.549.7l.008-.012a15.317,15.317,0,0,0-2.271,2.817c-1.605,2.013-3.2,4.031-4.818,6.036-1.764,2.189-3.551,4.359-5.311,6.55a1.363,1.363,0,0,1-1.163.6c-6.577-.012-13.154,0-19.73,0-.22,0-.468.083-.651-.128Z" transform="translate(-0.302 -43.921)" fill="#bad400"/>
    <path id="Path_86" data-name="Path 86" d="M428.733,345.657c-1.144,1.451-2.274,2.912-3.435,4.35-2.831,3.506-5.68,7-8.514,10.5q-4.305,5.321-8.6,10.652-3.078,3.808-6.165,7.608a.881.881,0,0,1-.455.377q-.023-6.217-.048-12.435a1.186,1.186,0,0,1,.31-.784q8.034-9.933,16.058-19.874a.936.936,0,0,1,.776-.462C422.019,345.623,425.376,345.637,428.733,345.657Z" transform="translate(-0.067)" fill="#003874"/>
    <path id="Path_87" data-name="Path 87" d="M866.4,423.775a2.243,2.243,0,0,1-2.211,1.932,2.419,2.419,0,0,1-2.566-1.657,3.873,3.873,0,0,1-.138-1.2q0-15.7,0-31.406a2.545,2.545,0,0,1,3.874-2.474,1.849,1.849,0,0,1,1.034,1.506,12.371,12.371,0,0,0-.018,1.736q-.008,15.176,0,30.351A10.01,10.01,0,0,0,866.4,423.775Z" transform="translate(-353.127 -32.995)" fill="#10100e"/>
    <path id="Path_88" data-name="Path 88" d="M881.344,430.036c-.353-.3-.2-.705-.2-1.061q-.013-15.308-.016-30.617a2.108,2.108,0,0,0-.14-1.263c-.156-.248.211-.251.344-.362a1.977,1.977,0,0,1,.138,1.1q.005,15.591,0,31.182A1.711,1.711,0,0,1,881.344,430.036Z" transform="translate(-368.074 -39.256)" fill="#0d0d0b"/>
    <path id="Path_89" data-name="Path 89" d="M538.1,481.35a6.749,6.749,0,0,1,2.271-2.817A19.431,19.431,0,0,1,538.1,481.35Z" transform="translate(-104.907 -102.044)" fill="#bbd50a"/>
    <path id="Path_90" data-name="Path 90" d="M550.15,472.1c.2-.427.058-1.135.867-1.069A2.552,2.552,0,0,1,550.15,472.1Z" transform="translate(-114.155 -96.286)" fill="#bbd50a"/>
    <path id="Path_91" data-name="Path 91" d="M553.841,468.2a.978.978,0,0,1,.743-.877A2.251,2.251,0,0,1,553.841,468.2Z" transform="translate(-116.988 -93.441)" fill="#bbd50a"/>
    <path id="Path_92" data-name="Path 92" d="M547.84,476.282a.681.681,0,0,1,.549-.7A1.2,1.2,0,0,1,547.84,476.282Z" transform="translate(-112.381 -99.781)" fill="#bbd50a"/>
    <path id="Path_93" data-name="Path 93" d="M531.286,380.851c-.084.882-1.027,1.236-1.263,2.028,0,0-.2-.053-.307-.082A10.751,10.751,0,0,1,531.286,380.851Z" transform="translate(-98.47 -27.065)" fill="#68bd0c"/>
    <path id="Path_94" data-name="Path 94" d="M537.731,376.324a.96.96,0,0,1-.749.9A2.382,2.382,0,0,1,537.731,376.324Z" transform="translate(-104.047 -23.59)" fill="#68bd0c"/>
    <path id="Path_95" data-name="Path 95" d="M548.369,472.676c.155.038.158.116.121.189a1.143,1.143,0,0,1-.142.181c-.051-.053-.156-.13-.144-.156A.928.928,0,0,1,548.369,472.676Z" transform="translate(-112.66 -97.549)" fill="#bbd50a"/>
  </g>
</svg>
